<svg width="20" height="20" viewBox="0 0 20 20" fill="none" xmlns="http://www.w3.org/2000/svg">
<g clip-path="url(#clip0_497_5689)">
<path d="M18.9179 17.6184C19.4182 18.1187 19.1893 18.9731 18.5058 19.1563C18.1886 19.2413 17.8501 19.1506 17.6179 18.9183L9.99959 11.2989L2.38128 18.9183C1.88093 19.4187 1.02655 19.1898 0.843407 18.5063C0.758417 18.1891 0.849105 17.8506 1.08132 17.6184L8.70078 10.0001L1.08132 2.38177C0.580965 1.88141 0.809891 1.02704 1.49339 0.843895C1.8106 0.758905 2.14906 0.849593 2.38128 1.08181L9.99959 8.70127L17.6179 1.08181C18.1183 0.581454 18.9726 0.81038 19.1558 1.49388C19.2408 1.81109 19.1501 2.14955 18.9179 2.38177L11.2984 10.0001L18.9179 17.6184Z" fill="#282B37"/>
</g>
<defs>
<clipPath id="clip0_497_5689">
<rect width="20" height="20" fill="white"/>
</clipPath>
</defs>
</svg>
