<svg width="141" height="42" viewBox="0 0 141 42" fill="none" xmlns="http://www.w3.org/2000/svg">
<path d="M125.871 31.7074V10.293H140.301V14.0259H130.399V19.1285H139.558V22.8614H130.399V27.9745H140.343V31.7074H125.871Z" fill="#282B37"/>
<path d="M109.717 31.7074V10.293H114.244V27.9745H123.425V31.7074H109.717Z" fill="#282B37"/>
<path d="M106.544 10.293V31.7074H102.016V10.293H106.544Z" fill="#282B37"/>
<path d="M94.3676 17.2148C94.2212 16.706 94.0155 16.2563 93.7506 15.866C93.4857 15.4686 93.1616 15.134 92.7782 14.8622C92.4018 14.5833 91.9696 14.3707 91.4816 14.2243C91.0006 14.0779 90.4674 14.0048 89.8818 14.0048C88.7874 14.0048 87.8254 14.2766 86.9959 14.8203C86.1733 15.3641 85.532 16.1553 85.0719 17.1939C84.6118 18.2256 84.3818 19.4873 84.3818 20.9791C84.3818 22.4708 84.6084 23.7395 85.0615 24.7852C85.5146 25.8308 86.1559 26.629 86.9854 27.1797C87.815 27.7234 88.7944 27.9952 89.9236 27.9952C90.9483 27.9952 91.8232 27.814 92.5482 27.4515C93.2801 27.0821 93.8378 26.5627 94.2212 25.8935C94.6115 25.2243 94.8067 24.4331 94.8067 23.52L95.7269 23.6559H90.206V20.2471H99.167V22.9449C99.167 24.827 98.7696 26.4442 97.975 27.7966C97.1803 29.142 96.0859 30.1806 94.6917 30.9125C93.2975 31.6375 91.7012 32 89.9027 32C87.8951 32 86.1315 31.5574 84.6118 30.6721C83.0922 29.7798 81.9072 28.5146 81.0567 26.8764C80.2132 25.2313 79.7915 23.2795 79.7915 21.0209C79.7915 19.2852 80.0425 17.7376 80.5444 16.3783C81.0532 15.012 81.7643 13.8549 82.6774 12.9068C83.5906 11.9588 84.6537 11.2373 85.8666 10.7424C87.0795 10.2475 88.3935 10 89.8086 10C91.0215 10 92.1508 10.1778 93.1965 10.5333C94.2421 10.8818 95.1692 11.3767 95.9778 12.0181C96.7934 12.6594 97.4591 13.4227 97.975 14.308C98.4908 15.1863 98.8219 16.1553 98.9683 17.2148H94.3676Z" fill="#282B37"/>
<path d="M63.3918 31.7074H58.54L65.9326 10.293H71.7672L79.1494 31.7074H74.2976L68.9336 15.1865H68.7663L63.3918 31.7074ZM63.0885 23.2901H74.5486V26.8243H63.0885V23.2901Z" fill="#282B37"/>
<path d="M56.5276 10.293V31.7074H52V10.293H56.5276Z" fill="#282B37"/>
<path d="M42 20.9779C42 32.6029 32.6029 42 21.0221 42C16.5221 42 12.3971 40.6103 8.97794 38.2279C8.58088 37.9412 8.20588 37.6544 7.83088 37.3676L22.875 22.3235L21.0662 28.5L29.3162 32.4265C29.7574 32.6471 30.2868 32.3382 30.3088 31.8309L31.3235 9.375C31.3676 8.86765 30.8382 8.49265 30.375 8.71323L5.53676 19.5441C4.98529 19.7647 4.96324 20.5368 5.51471 20.8015L12.8162 24.2206C13.0809 24.3529 13.125 24.6838 12.9265 24.8824L4.21324 33.5956C1.54412 30.0882 0 25.6985 0 20.9779C0 9.39706 9.39706 0 21.0221 0C32.6471 0 42 9.39706 42 20.9779Z" fill="#7B6BF2"/>
</svg>
