<svg width="244" height="244" viewBox="0 0 244 244" fill="none" xmlns="http://www.w3.org/2000/svg">
<path d="M228.75 200.156H211.594V91.5C211.594 87.961 210.188 84.567 207.685 82.0645C205.183 79.5621 201.789 78.1562 198.25 78.1562H135.344V30.5C135.343 28.0848 134.686 25.7153 133.444 23.6439C132.202 21.5725 130.422 19.8771 128.292 18.7383C126.162 17.5995 123.763 17.0602 121.351 17.1777C118.938 17.2952 116.603 18.0652 114.594 19.4056L38.3442 70.2358C36.517 71.4549 35.019 73.1062 33.9831 75.0433C32.9472 76.9803 32.4056 79.1431 32.4062 81.3397V200.156H15.25C13.7333 200.156 12.2787 200.759 11.2062 201.831C10.1338 202.904 9.53125 204.358 9.53125 205.875C9.53125 207.392 10.1338 208.846 11.2062 209.919C12.2787 210.991 13.7333 211.594 15.25 211.594H228.75C230.267 211.594 231.721 210.991 232.794 209.919C233.866 208.846 234.469 207.392 234.469 205.875C234.469 204.358 233.866 202.904 232.794 201.831C231.721 200.759 230.267 200.156 228.75 200.156ZM198.25 89.5937C198.756 89.5937 199.24 89.7946 199.598 90.1521C199.955 90.5096 200.156 90.9944 200.156 91.5V200.156H135.344V89.5937H198.25ZM43.8438 81.3397C43.8443 81.0266 43.922 80.7184 44.07 80.4425C44.2179 80.1665 44.4316 79.9313 44.692 79.7575L120.942 28.9178C121.229 28.7264 121.562 28.6165 121.907 28.5996C122.251 28.5827 122.593 28.6595 122.898 28.8218C123.202 28.9842 123.456 29.226 123.634 29.5215C123.811 29.817 123.906 30.1552 123.906 30.5V200.156H43.8438V81.3397ZM104.844 106.75V122C104.844 123.517 104.241 124.971 103.169 126.044C102.096 127.116 100.642 127.719 99.125 127.719C97.6083 127.719 96.1537 127.116 95.0812 126.044C94.0088 124.971 93.4062 123.517 93.4062 122V106.75C93.4062 105.233 94.0088 103.779 95.0812 102.706C96.1537 101.634 97.6083 101.031 99.125 101.031C100.642 101.031 102.096 101.634 103.169 102.706C104.241 103.779 104.844 105.233 104.844 106.75ZM74.3438 106.75V122C74.3438 123.517 73.7412 124.971 72.6688 126.044C71.5963 127.116 70.1417 127.719 68.625 127.719C67.1083 127.719 65.6537 127.116 64.5812 126.044C63.5088 124.971 62.9062 123.517 62.9062 122V106.75C62.9062 105.233 63.5088 103.779 64.5812 102.706C65.6537 101.634 67.1083 101.031 68.625 101.031C70.1417 101.031 71.5963 101.634 72.6688 102.706C73.7412 103.779 74.3438 105.233 74.3438 106.75ZM74.3438 160.125V175.375C74.3438 176.892 73.7412 178.346 72.6688 179.419C71.5963 180.491 70.1417 181.094 68.625 181.094C67.1083 181.094 65.6537 180.491 64.5812 179.419C63.5088 178.346 62.9062 176.892 62.9062 175.375V160.125C62.9062 158.608 63.5088 157.154 64.5812 156.081C65.6537 155.009 67.1083 154.406 68.625 154.406C70.1417 154.406 71.5963 155.009 72.6688 156.081C73.7412 157.154 74.3438 158.608 74.3438 160.125ZM104.844 160.125V175.375C104.844 176.892 104.241 178.346 103.169 179.419C102.096 180.491 100.642 181.094 99.125 181.094C97.6083 181.094 96.1537 180.491 95.0812 179.419C94.0088 178.346 93.4062 176.892 93.4062 175.375V160.125C93.4062 158.608 94.0088 157.154 95.0812 156.081C96.1537 155.009 97.6083 154.406 99.125 154.406C100.642 154.406 102.096 155.009 103.169 156.081C104.241 157.154 104.844 158.608 104.844 160.125Z" fill="#E3E5EA"/>
</svg>
