<svg width="180" height="180" viewBox="0 0 180 180" fill="none" xmlns="http://www.w3.org/2000/svg">
<path opacity="0.2" d="M151.875 90C151.875 102.238 148.246 114.201 141.447 124.376C134.648 134.551 124.985 142.482 113.679 147.165C102.372 151.848 89.9314 153.074 77.9288 150.686C65.9262 148.299 54.9012 142.406 46.2478 133.752C37.5944 125.099 31.7014 114.074 29.3139 102.071C26.9265 90.0686 28.1518 77.6276 32.835 66.3215C37.5182 55.0153 45.4488 45.3517 55.6241 38.5528C65.7994 31.7539 77.7623 28.125 90 28.125C106.41 28.125 122.148 34.644 133.752 46.2478C145.356 57.8516 151.875 73.5897 151.875 90Z" fill="#D2D8E7"/>
<path d="M139.388 44.0367L150.413 31.9078C151.395 30.8005 151.901 29.3507 151.822 27.8727C151.742 26.3947 151.083 25.0076 149.988 24.0121C148.893 23.0166 147.449 22.493 145.97 22.5548C144.491 22.6166 143.096 23.2588 142.088 24.3422L131.063 36.464C117.639 26.1542 100.83 21.2671 83.9709 22.7721C67.1118 24.2772 51.4343 32.0645 40.0488 44.589C28.6633 57.1136 22.4017 73.4603 22.5062 90.3862C22.6106 107.312 29.0736 123.58 40.6128 135.963L29.5878 148.092C29.0806 148.637 28.6866 149.277 28.4286 149.975C28.1707 150.673 28.0538 151.416 28.0849 152.16C28.116 152.903 28.2943 153.634 28.6097 154.308C28.925 154.982 29.371 155.587 29.9219 156.088C30.4728 156.588 31.1175 156.975 31.8188 157.224C32.52 157.474 33.2639 157.582 34.0072 157.542C34.7504 157.502 35.4784 157.315 36.1488 156.991C36.8193 156.668 37.4189 156.215 37.9128 155.658L48.9378 143.536C62.3618 153.846 79.1707 158.733 96.0298 157.228C112.889 155.723 128.566 147.935 139.952 135.411C151.337 122.886 157.599 106.54 157.494 89.6138C157.39 72.6879 150.927 56.4198 139.388 44.0367ZM33.7503 90C33.7566 79.5863 36.6535 69.3789 42.1185 60.5144C47.5834 51.65 55.4018 44.4766 64.7029 39.7933C74.004 35.11 84.4226 33.1005 94.7983 33.9887C105.174 34.877 115.099 38.6281 123.469 44.8242L48.2347 127.603C38.9071 117.301 33.7443 103.898 33.7503 90ZM90.0003 146.25C77.942 146.263 66.2025 142.378 56.5316 135.176L131.766 52.3968C139.045 60.4717 143.826 70.4839 145.531 81.2207C147.235 91.9575 145.79 102.958 141.37 112.89C136.95 122.823 129.745 131.26 120.628 137.181C111.51 143.102 100.872 146.252 90.0003 146.25Z" fill="#D2D8E7"/>
</svg>
