<svg width="180" height="180" viewBox="0 0 180 180" fill="none" xmlns="http://www.w3.org/2000/svg">
<path opacity="0.2" d="M157.5 45V146.25H22.5V33.75H146.25C149.234 33.75 152.095 34.9353 154.205 37.045C156.315 39.1548 157.5 42.0163 157.5 45Z" fill="#D2D8E7"/>
<path d="M163.125 146.25C163.125 147.742 162.532 149.173 161.477 150.227C160.423 151.282 158.992 151.875 157.5 151.875H22.5C21.0082 151.875 19.5774 151.282 18.5225 150.227C17.4676 149.173 16.875 147.742 16.875 146.25V33.75C16.875 32.2582 17.4676 30.8274 18.5225 29.7725C19.5774 28.7176 21.0082 28.125 22.5 28.125C23.9918 28.125 25.4226 28.7176 26.4775 29.7725C27.5324 30.8274 28.125 32.2582 28.125 33.75V110.173L63.5203 74.7703C64.0427 74.2473 64.6631 73.8324 65.346 73.5494C66.0288 73.2663 66.7608 73.1206 67.5 73.1206C68.2392 73.1206 68.9712 73.2663 69.654 73.5494C70.3369 73.8324 70.9573 74.2473 71.4797 74.7703L90 93.2977L127.048 56.25H112.5C111.008 56.25 109.577 55.6574 108.523 54.6025C107.468 53.5476 106.875 52.1168 106.875 50.625C106.875 49.1332 107.468 47.7024 108.523 46.6475C109.577 45.5926 111.008 45 112.5 45H140.625C142.117 45 143.548 45.5926 144.602 46.6475C145.657 47.7024 146.25 49.1332 146.25 50.625V78.75C146.25 80.2418 145.657 81.6726 144.602 82.7275C143.548 83.7824 142.117 84.375 140.625 84.375C139.133 84.375 137.702 83.7824 136.648 82.7275C135.593 81.6726 135 80.2418 135 78.75V64.2023L93.9797 105.23C93.4573 105.753 92.8369 106.168 92.154 106.451C91.4712 106.734 90.7392 106.879 90 106.879C89.2608 106.879 88.5288 106.734 87.846 106.451C87.1631 106.168 86.5427 105.753 86.0203 105.23L67.5 86.7023L28.125 126.077V140.625H157.5C158.992 140.625 160.423 141.218 161.477 142.273C162.532 143.327 163.125 144.758 163.125 146.25Z" fill="#D2D8E7"/>
</svg>
