<svg width="180" height="180" viewBox="0 0 180 180" fill="none" xmlns="http://www.w3.org/2000/svg">
<path opacity="0.2" d="M157.5 39.375V146.25L135 135L112.5 146.25L90 135L67.5 146.25L45 135L22.5 146.25V39.375C22.5 37.8832 23.0926 36.4524 24.1475 35.3975C25.2024 34.3426 26.6332 33.75 28.125 33.75H151.875C153.367 33.75 154.798 34.3426 155.852 35.3975C156.907 36.4524 157.5 37.8832 157.5 39.375Z" fill="#D2D8E7"/>
<path d="M151.875 28.125H28.125C25.1413 28.125 22.2798 29.3103 20.17 31.42C18.0603 33.5298 16.875 36.3913 16.875 39.375V146.25C16.8755 147.209 17.1211 148.151 17.5883 148.989C18.0556 149.826 18.7291 150.529 19.5448 151.033C20.3606 151.537 21.2915 151.824 22.2493 151.866C23.207 151.909 24.1598 151.706 25.0172 151.277L45 141.286L64.9828 151.277C65.7643 151.668 66.6261 151.872 67.5 151.872C68.3739 151.872 69.2357 151.668 70.0172 151.277L90 141.286L109.983 151.277C110.764 151.668 111.626 151.872 112.5 151.872C113.374 151.872 114.236 151.668 115.017 151.277L135 141.286L154.983 151.277C155.84 151.706 156.793 151.909 157.751 151.866C158.708 151.824 159.639 151.537 160.455 151.033C161.271 150.529 161.944 149.826 162.412 148.989C162.879 148.151 163.124 147.209 163.125 146.25V39.375C163.125 36.3913 161.94 33.5298 159.83 31.42C157.72 29.3103 154.859 28.125 151.875 28.125ZM151.875 137.152L137.517 129.966C136.736 129.575 135.874 129.371 135 129.371C134.126 129.371 133.264 129.575 132.483 129.966L112.5 139.964L92.5172 129.966C91.7357 129.575 90.8739 129.371 90 129.371C89.1261 129.371 88.2643 129.575 87.4828 129.966L67.5 139.964L47.5172 129.966C46.7357 129.575 45.8739 129.371 45 129.371C44.1261 129.371 43.2643 129.575 42.4828 129.966L28.125 137.152V39.375H151.875V137.152ZM69.1453 97.2703L82.0477 84.375L69.1453 71.4797C68.0898 70.4242 67.4969 68.9927 67.4969 67.5C67.4969 66.0073 68.0898 64.5758 69.1453 63.5203C70.2008 62.4648 71.6323 61.8719 73.125 61.8719C74.6177 61.8719 76.0492 62.4648 77.1047 63.5203L90 76.4227L102.895 63.5203C103.418 62.9977 104.038 62.5831 104.721 62.3003C105.404 62.0174 106.136 61.8719 106.875 61.8719C107.614 61.8719 108.346 62.0174 109.029 62.3003C109.712 62.5831 110.332 62.9977 110.855 63.5203C111.377 64.0429 111.792 64.6634 112.075 65.3462C112.358 66.029 112.503 66.7609 112.503 67.5C112.503 68.2391 112.358 68.971 112.075 69.6538C111.792 70.3366 111.377 70.9571 110.855 71.4797L97.9523 84.375L110.855 97.2703C111.377 97.7929 111.792 98.4134 112.075 99.0962C112.358 99.779 112.503 100.511 112.503 101.25C112.503 101.989 112.358 102.721 112.075 103.404C111.792 104.087 111.377 104.707 110.855 105.23C110.332 105.752 109.712 106.167 109.029 106.45C108.346 106.733 107.614 106.878 106.875 106.878C106.136 106.878 105.404 106.733 104.721 106.45C104.038 106.167 103.418 105.752 102.895 105.23L90 92.3273L77.1047 105.23C76.5821 105.752 75.9616 106.167 75.2788 106.45C74.596 106.733 73.8641 106.878 73.125 106.878C72.3859 106.878 71.654 106.733 70.9712 106.45C70.2884 106.167 69.6679 105.752 69.1453 105.23C68.6227 104.707 68.2081 104.087 67.9253 103.404C67.6424 102.721 67.4969 101.989 67.4969 101.25C67.4969 100.511 67.6424 99.779 67.9253 99.0962C68.2081 98.4134 68.6227 97.7929 69.1453 97.2703Z" fill="#D2D8E7"/>
</svg>
