<svg width="244" height="244" viewBox="0 0 244 244" fill="none" xmlns="http://www.w3.org/2000/svg">
<path d="M219.219 198.25C219.219 199.767 218.616 201.221 217.544 202.294C216.471 203.366 215.017 203.969 213.5 203.969H30.5C28.9833 203.969 27.5287 203.366 26.4562 202.294C25.3838 201.221 24.7812 199.767 24.7812 198.25V45.75C24.7812 44.2333 25.3838 42.7787 26.4562 41.7062C27.5287 40.6338 28.9833 40.0313 30.5 40.0312C32.0167 40.0313 33.4713 40.6338 34.5438 41.7062C35.6162 42.7787 36.2188 44.2333 36.2188 45.75V192.531H213.5C215.017 192.531 216.471 193.134 217.544 194.206C218.616 195.279 219.219 196.733 219.219 198.25ZM125.812 150.594C127.698 150.594 129.54 150.035 131.108 148.987C132.675 147.94 133.897 146.452 134.618 144.71C135.34 142.968 135.528 141.052 135.161 139.203C134.793 137.354 133.885 135.656 132.552 134.323C131.219 132.99 129.521 132.082 127.672 131.714C125.823 131.347 123.907 131.535 122.165 132.257C120.423 132.978 118.935 134.2 117.888 135.767C116.84 137.335 116.281 139.177 116.281 141.062C116.281 143.59 117.285 146.015 119.073 147.802C120.86 149.59 123.285 150.594 125.812 150.594ZM102.938 97.2188C104.823 97.2188 106.665 96.6598 108.233 95.6124C109.8 94.5651 111.022 93.0766 111.743 91.335C112.465 89.5933 112.653 87.6769 112.286 85.828C111.918 83.9792 111.01 82.2809 109.677 80.9479C108.344 79.6149 106.646 78.7072 104.797 78.3394C102.948 77.9716 101.032 78.1604 99.29 78.8818C97.5484 79.6032 96.0599 80.8248 95.0126 82.3922C93.9652 83.9596 93.4062 85.8024 93.4062 87.6875C93.4062 90.2153 94.4104 92.6397 96.1979 94.4271C97.9853 96.2146 100.41 97.2188 102.938 97.2188ZM72.4375 165.844C74.3226 165.844 76.1654 165.285 77.7328 164.237C79.3002 163.19 80.5218 161.702 81.2432 159.96C81.9646 158.218 82.1534 156.302 81.7856 154.453C81.4178 152.604 80.5101 150.906 79.1771 149.573C77.8441 148.24 76.1458 147.332 74.297 146.964C72.4481 146.597 70.5317 146.785 68.79 147.507C67.0484 148.228 65.5599 149.45 64.5126 151.017C63.4652 152.585 62.9062 154.427 62.9062 156.312C62.9062 158.84 63.9104 161.265 65.6979 163.052C67.4853 164.84 69.9097 165.844 72.4375 165.844ZM163.938 120.094C165.823 120.094 167.665 119.535 169.233 118.487C170.8 117.44 172.022 115.952 172.743 114.21C173.465 112.468 173.653 110.552 173.286 108.703C172.918 106.854 172.01 105.156 170.677 103.823C169.344 102.49 167.646 101.582 165.797 101.214C163.948 100.847 162.032 101.035 160.29 101.757C158.548 102.478 157.06 103.7 156.013 105.267C154.965 106.835 154.406 108.677 154.406 110.562C154.406 113.09 155.41 115.515 157.198 117.302C158.985 119.09 161.41 120.094 163.938 120.094ZM186.812 81.9688C188.698 81.9688 190.54 81.4098 192.108 80.3624C193.675 79.3151 194.897 77.8266 195.618 76.085C196.34 74.3433 196.528 72.4269 196.161 70.578C195.793 68.7292 194.885 67.0309 193.552 65.6979C192.219 64.3649 190.521 63.4572 188.672 63.0894C186.823 62.7216 184.907 62.9104 183.165 63.6318C181.423 64.3532 179.935 65.5748 178.888 67.1422C177.84 68.7096 177.281 70.5524 177.281 72.4375C177.281 74.9653 178.285 77.3897 180.073 79.1771C181.86 80.9646 184.285 81.9688 186.812 81.9688ZM179.188 146.781C177.302 146.781 175.46 147.34 173.892 148.388C172.325 149.435 171.103 150.923 170.382 152.665C169.66 154.407 169.472 156.323 169.839 158.172C170.207 160.021 171.115 161.719 172.448 163.052C173.781 164.385 175.479 165.293 177.328 165.661C179.177 166.028 181.093 165.84 182.835 165.118C184.577 164.397 186.065 163.175 187.112 161.608C188.16 160.04 188.719 158.198 188.719 156.312C188.719 153.785 187.715 151.36 185.927 149.573C184.14 147.785 181.715 146.781 179.188 146.781Z" fill="#E3E5EA"/>
</svg>
