<svg width="244" height="244" viewBox="0 0 244 244" fill="none" xmlns="http://www.w3.org/2000/svg">
<path d="M205.875 40.0312H38.125C34.586 40.0313 31.192 41.4371 28.6895 43.9395C26.1871 46.442 24.7813 49.836 24.7812 53.375V190.625C24.7812 194.164 26.1871 197.558 28.6895 200.06C31.192 202.563 34.586 203.969 38.125 203.969H50.8873C51.9695 203.968 53.0294 203.661 53.9438 203.082C54.8583 202.504 55.5898 201.677 56.0533 200.7C59.9151 192.544 66.0131 185.652 73.6379 180.826C81.2628 176 90.1012 173.438 99.125 173.438C108.149 173.438 116.987 176 124.612 180.826C132.237 185.652 138.335 192.544 142.197 200.7C142.66 201.677 143.392 202.504 144.306 203.082C145.221 203.661 146.28 203.968 147.363 203.969H205.875C209.414 203.969 212.808 202.563 215.31 200.06C217.813 197.558 219.219 194.164 219.219 190.625V53.375C219.219 49.836 217.813 46.442 215.31 43.9395C212.808 41.4371 209.414 40.0313 205.875 40.0312ZM74.3438 137.25C74.3438 132.349 75.7971 127.558 78.5201 123.482C81.2431 119.407 85.1134 116.231 89.6416 114.355C94.1698 112.479 99.1525 111.989 103.96 112.945C108.767 113.901 113.182 116.261 116.648 119.727C120.114 123.193 122.474 127.608 123.43 132.415C124.386 137.223 123.896 142.205 122.02 146.733C120.144 151.262 116.968 155.132 112.893 157.855C108.817 160.578 104.026 162.031 99.125 162.031C92.5526 162.031 86.2494 159.42 81.602 154.773C76.9546 150.126 74.3438 143.822 74.3438 137.25ZM207.781 190.625C207.781 191.131 207.58 191.615 207.223 191.973C206.865 192.33 206.381 192.531 205.875 192.531H150.851C144.183 180.562 133.583 171.266 120.847 166.215C126.93 161.656 131.425 155.297 133.694 148.041C135.962 140.785 135.89 132.999 133.487 125.786C131.084 118.573 126.472 112.299 120.305 107.853C114.138 103.407 106.728 101.015 99.125 101.015C91.5223 101.015 84.1124 103.407 77.9451 107.853C71.7778 112.299 67.166 118.573 64.763 125.786C62.36 132.999 62.2877 140.785 64.5564 148.041C66.8251 155.297 71.3196 161.656 77.4033 166.215C64.6669 171.266 54.0672 180.562 47.3989 192.531H38.125C37.6194 192.531 37.1346 192.33 36.7771 191.973C36.4196 191.615 36.2188 191.131 36.2188 190.625V53.375C36.2188 52.8694 36.4196 52.3846 36.7771 52.0271C37.1346 51.6696 37.6194 51.4688 38.125 51.4688H205.875C206.381 51.4688 206.865 51.6696 207.223 52.0271C207.58 52.3846 207.781 52.8694 207.781 53.375V190.625ZM188.719 76.25V167.75C188.719 169.267 188.116 170.721 187.044 171.794C185.971 172.866 184.517 173.469 183 173.469H167.75C166.233 173.469 164.779 172.866 163.706 171.794C162.634 170.721 162.031 169.267 162.031 167.75C162.031 166.233 162.634 164.779 163.706 163.706C164.779 162.634 166.233 162.031 167.75 162.031H177.281V81.9688H66.7188V91.5C66.7188 93.0167 66.1162 94.4713 65.0438 95.5438C63.9713 96.6162 62.5167 97.2188 61 97.2188C59.4833 97.2188 58.0287 96.6162 56.9562 95.5438C55.8838 94.4713 55.2812 93.0167 55.2812 91.5V76.25C55.2812 74.7333 55.8838 73.2787 56.9562 72.2062C58.0287 71.1338 59.4833 70.5312 61 70.5312H183C184.517 70.5312 185.971 71.1338 187.044 72.2062C188.116 73.2787 188.719 74.7333 188.719 76.25Z" fill="#E3E5EA"/>
</svg>
