<svg width="180" height="180" viewBox="0 0 180 180" fill="none" xmlns="http://www.w3.org/2000/svg">
<path opacity="0.2" d="M129.375 90C129.375 97.7876 127.066 105.4 122.739 111.876C118.413 118.351 112.263 123.398 105.068 126.378C97.8733 129.358 89.9563 130.138 82.3183 128.618C74.6803 127.099 67.6644 123.349 62.1577 117.842C56.651 112.336 52.9009 105.32 51.3816 97.6817C49.8623 90.0437 50.6421 82.1267 53.6223 74.9318C56.6025 67.737 61.6493 61.5875 68.1244 57.2609C74.5996 52.9343 82.2124 50.625 90 50.625C100.443 50.625 110.458 54.7734 117.842 62.1577C125.227 69.5419 129.375 79.5571 129.375 90Z" fill="#D2D8E7"/>
<path d="M90 16.875C75.5373 16.875 61.3993 21.1637 49.374 29.1988C37.3486 37.2339 27.976 48.6544 22.4413 62.0163C16.9067 75.3781 15.4586 90.0811 18.2801 104.266C21.1017 118.451 28.0661 131.48 38.2928 141.707C48.5196 151.934 61.5492 158.898 75.7341 161.72C89.9189 164.541 104.622 163.093 117.984 157.559C131.346 152.024 142.766 142.651 150.801 130.626C158.836 118.601 163.125 104.463 163.125 90C163.105 70.6123 155.394 52.0246 141.685 38.3154C127.975 24.6063 109.388 16.8955 90 16.875ZM151.615 84.375H134.634C133.372 74.4702 128.856 65.2651 121.795 58.2046C114.735 51.1442 105.53 46.6282 95.625 45.3656V28.3852C110.024 29.7183 123.504 36.0455 133.729 46.2708C143.955 56.4962 150.282 69.9757 151.615 84.375ZM84.375 84.375H56.7282C57.9057 77.4709 61.1981 71.1029 66.1505 66.1505C71.1029 61.198 77.471 57.9057 84.375 56.7281V84.375ZM84.375 95.625V123.272C77.471 122.094 71.1029 118.802 66.1505 113.85C61.1981 108.897 57.9057 102.529 56.7282 95.625H84.375ZM95.625 95.625H123.272C122.094 102.529 118.802 108.897 113.85 113.85C108.897 118.802 102.529 122.094 95.625 123.272V95.625ZM95.625 84.375V56.7281C102.529 57.9057 108.897 61.198 113.85 66.1505C118.802 71.1029 122.094 77.4709 123.272 84.375H95.625ZM84.375 28.3852V45.3656C74.4702 46.6282 65.2651 51.1442 58.2047 58.2046C51.1442 65.2651 46.6283 74.4702 45.3657 84.375H28.3852C29.7183 69.9757 36.0455 56.4962 46.2708 46.2708C56.4962 36.0455 69.9758 29.7183 84.375 28.3852ZM28.3852 95.625H45.3657C46.6283 105.53 51.1442 114.735 58.2047 121.795C65.2651 128.856 74.4702 133.372 84.375 134.634V151.615C69.9758 150.282 56.4962 143.955 46.2708 133.729C36.0455 123.504 29.7183 110.024 28.3852 95.625ZM95.625 151.615V134.634C105.53 133.372 114.735 128.856 121.795 121.795C128.856 114.735 133.372 105.53 134.634 95.625H151.615C150.282 110.024 143.955 123.504 133.729 133.729C123.504 143.955 110.024 150.282 95.625 151.615Z" fill="#D2D8E7"/>
</svg>
