<svg width="244" height="244" viewBox="0 0 244 244" fill="none" xmlns="http://www.w3.org/2000/svg">
<path d="M213.5 192.531H203.969V38.125C203.969 36.6083 203.366 35.1537 202.294 34.0812C201.221 33.0088 199.767 32.4063 198.25 32.4062H144.875C143.358 32.4063 141.904 33.0088 140.831 34.0812C139.759 35.1537 139.156 36.6083 139.156 38.125V78.1562H91.5C89.9833 78.1562 88.5287 78.7588 87.4562 79.8312C86.3838 80.9037 85.7812 82.3583 85.7812 83.875V123.906H45.75C44.2333 123.906 42.7787 124.509 41.7062 125.581C40.6338 126.654 40.0312 128.108 40.0312 129.625V192.531H30.5C28.9833 192.531 27.5287 193.134 26.4562 194.206C25.3838 195.279 24.7812 196.733 24.7812 198.25C24.7812 199.767 25.3838 201.221 26.4562 202.294C27.5287 203.366 28.9833 203.969 30.5 203.969H213.5C215.017 203.969 216.471 203.366 217.544 202.294C218.616 201.221 219.219 199.767 219.219 198.25C219.219 196.733 218.616 195.279 217.544 194.206C216.471 193.134 215.017 192.531 213.5 192.531ZM150.594 43.8438H192.531V192.531H150.594V43.8438ZM97.2188 89.5938H139.156V192.531H97.2188V89.5938ZM51.4688 135.344H85.7812V192.531H51.4688V135.344Z" fill="#E3E5EA"/>
</svg>
