<svg width="32" height="32" viewBox="0 0 32 32" fill="none" xmlns="http://www.w3.org/2000/svg">
<path d="M5.29243 21.2927L15.2924 11.2927C15.3853 11.1997 15.4956 11.1259 15.617 11.0756C15.7384 11.0253 15.8685 10.9994 15.9999 10.9994C16.1313 10.9994 16.2615 11.0253 16.3829 11.0756C16.5043 11.1259 16.6146 11.1997 16.7074 11.2927L26.7074 21.2927C26.8951 21.4803 27.0005 21.7348 27.0005 22.0002C27.0005 22.2655 26.8951 22.52 26.7074 22.7077C26.5198 22.8953 26.2653 23.0007 25.9999 23.0007C25.7346 23.0007 25.4801 22.8953 25.2924 22.7077L15.9999 13.4139L6.70743 22.7077C6.61452 22.8006 6.50422 22.8743 6.38283 22.9246C6.26143 22.9749 6.13133 23.0007 5.99993 23.0007C5.86854 23.0007 5.73843 22.9749 5.61703 22.9246C5.49564 22.8743 5.38534 22.8006 5.29243 22.7077C5.19952 22.6148 5.12582 22.5045 5.07554 22.3831C5.02526 22.2617 4.99937 22.1316 4.99937 22.0002C4.99937 21.8688 5.02526 21.7387 5.07554 21.6173C5.12582 21.4959 5.19952 21.3856 5.29243 21.2927Z" fill="#282B37"/>
</svg>
