<svg width="54" height="54" viewBox="0 0 54 54" fill="none" xmlns="http://www.w3.org/2000/svg">
<rect width="54" height="54" rx="27" fill="#7B6BF2"/>
<path d="M37.6145 27C37.6152 27.2873 37.5415 27.5699 37.4007 27.8202C37.2598 28.0706 37.0566 28.2803 36.8107 28.4289L21.5722 37.7509C21.3153 37.9082 21.021 37.9941 20.7198 37.9997C20.4186 38.0053 20.1214 37.9304 19.8588 37.7827C19.5987 37.6372 19.3821 37.4252 19.2312 37.1683C19.0802 36.9114 19.0004 36.6189 19 36.321V17.679C19.0004 17.3811 19.0802 17.0886 19.2312 16.8317C19.3821 16.5748 19.5987 16.3628 19.8588 16.2173C20.1214 16.0696 20.4186 15.9947 20.7198 16.0003C21.021 16.0059 21.3153 16.0918 21.5722 16.2491L36.8107 25.5711C37.0566 25.7197 37.2598 25.9294 37.4007 26.1798C37.5415 26.4301 37.6152 26.7127 37.6145 27Z" fill="white"/>
</svg>
