<svg width="80" height="80" viewBox="0 0 80 80" fill="none" xmlns="http://www.w3.org/2000/svg">
<rect width="80" height="80" rx="40" fill="white"/>
<path d="M62.049 39.999C62.049 41.0138 61.2263 41.8365 60.2115 41.8365H41.8365V60.2115C41.8365 61.626 40.3053 62.5101 39.0803 61.8028C38.5118 61.4746 38.1615 60.868 38.1615 60.2115V41.8365H19.7865C18.372 41.8365 17.488 40.3053 18.1952 39.0803C18.5235 38.5117 19.13 38.1615 19.7865 38.1615H38.1615V19.7865C38.1615 18.372 39.6928 17.488 40.9178 18.1952C41.4863 18.5234 41.8365 19.13 41.8365 19.7865V38.1615H60.2115C61.2263 38.1616 62.049 38.9842 62.049 39.999Z" fill="#7B6BF2"/>
</svg>
