<svg width="244" height="244" viewBox="0 0 244 244" fill="none" xmlns="http://www.w3.org/2000/svg">
<path d="M232.181 141.825C231.58 142.275 230.897 142.603 230.169 142.79C229.442 142.976 228.685 143.017 227.941 142.911C227.198 142.805 226.483 142.553 225.836 142.171C225.19 141.788 224.626 141.282 224.175 140.681C219.403 134.266 213.191 129.061 206.039 125.485C198.887 121.909 190.996 120.062 183 120.094C181.483 120.094 180.029 119.491 178.956 118.419C177.884 117.346 177.281 115.892 177.281 114.375C177.281 112.858 177.884 111.404 178.956 110.331C180.029 109.259 181.483 108.656 183 108.656C187.635 108.655 192.176 107.354 196.109 104.902C200.041 102.449 203.207 98.9428 205.247 94.7811C207.287 90.6193 208.118 85.969 207.648 81.3583C207.177 76.7475 205.423 72.3612 202.584 68.6974C199.746 65.0337 195.937 62.2394 191.59 60.6319C187.243 59.0244 182.532 58.6682 177.993 59.6037C173.453 60.5392 169.267 62.7289 165.91 65.9242C162.553 69.1194 160.159 73.192 159 77.6796C158.621 79.1483 157.674 80.4062 156.367 81.1766C155.061 81.9469 153.502 82.1667 152.033 81.7875C150.564 81.4084 149.306 80.4613 148.536 79.1547C147.766 77.848 147.546 76.2889 147.925 74.8202C149.362 69.2295 152.115 64.0633 155.954 59.7523C159.794 55.4413 164.607 52.1104 169.995 50.0372C175.382 47.9639 181.187 47.2085 186.926 47.8337C192.664 48.459 198.17 50.4468 202.985 53.6316C207.8 56.8164 211.783 61.1058 214.604 66.1424C217.424 71.179 219 76.8168 219.2 82.5859C219.4 88.3551 218.218 94.0884 215.752 99.308C213.287 104.528 209.609 109.082 205.027 112.593C216.304 116.801 226.129 124.17 233.325 133.819C233.776 134.419 234.103 135.103 234.29 135.831C234.476 136.558 234.517 137.315 234.411 138.059C234.305 138.802 234.053 139.517 233.671 140.164C233.288 140.81 232.782 141.374 232.181 141.825ZM180.322 203.016C180.698 203.666 180.943 204.384 181.041 205.128C181.14 205.873 181.091 206.63 180.897 207.356C180.703 208.082 180.368 208.762 179.912 209.358C179.455 209.955 178.885 210.455 178.234 210.831C177.367 211.339 176.38 211.606 175.375 211.603C174.371 211.604 173.384 211.34 172.514 210.838C171.643 210.336 170.921 209.614 170.419 208.744C165.448 200.322 158.366 193.341 149.874 188.492C141.381 183.643 131.77 181.093 121.99 181.093C112.211 181.093 102.6 183.643 94.1073 188.492C85.6145 193.341 78.5331 200.322 73.5622 208.744C73.2047 209.427 72.7126 210.031 72.1156 210.52C71.5186 211.008 70.829 211.37 70.0883 211.585C69.3475 211.8 68.571 211.863 67.8053 211.77C67.0397 211.677 66.3007 211.43 65.633 211.044C64.9652 210.658 64.3825 210.141 63.9197 209.524C63.457 208.907 63.1238 208.203 62.9403 207.454C62.7569 206.704 62.7268 205.926 62.852 205.165C62.9771 204.404 63.255 203.676 63.6688 203.025C71.458 189.642 83.654 179.38 98.1719 173.993C90.2414 168.844 84.1881 161.269 80.9148 152.398C77.6416 143.527 77.3238 133.836 80.0089 124.77C82.6939 115.704 88.238 107.748 95.8141 102.091C103.39 96.4333 112.592 93.3765 122.048 93.3765C131.503 93.3765 140.705 96.4333 148.281 102.091C155.857 107.748 161.401 115.704 164.086 124.77C166.772 133.836 166.454 143.527 163.18 152.398C159.907 161.269 153.854 168.844 145.923 173.993C160.401 179.398 172.557 189.654 180.322 203.016ZM122 169.656C128.409 169.656 134.675 167.756 140.004 164.195C145.333 160.634 149.487 155.573 151.939 149.651C154.392 143.73 155.034 137.214 153.784 130.928C152.533 124.642 149.447 118.867 144.915 114.335C140.383 109.803 134.608 106.717 128.322 105.466C122.036 104.216 115.52 104.858 109.599 107.31C103.677 109.763 98.616 113.917 95.0552 119.246C91.4943 124.575 89.5938 130.841 89.5938 137.25C89.5938 145.845 93.008 154.087 99.0853 160.165C105.163 166.242 113.405 169.656 122 169.656ZM66.7188 114.375C66.7188 112.858 66.1162 111.404 65.0438 110.331C63.9713 109.259 62.5167 108.656 61 108.656C56.3658 108.655 51.8249 107.354 47.8929 104.901C43.9609 102.449 40.7954 98.9428 38.7558 94.7816C36.7162 90.6204 35.8842 85.9707 36.3545 81.3604C36.8247 76.7501 38.5782 72.3641 41.4159 68.7003C44.2536 65.0366 48.0617 62.2419 52.4079 60.6337C56.7541 59.0255 61.4641 58.6682 66.0032 59.6023C70.5422 60.5365 74.7284 62.7247 78.0863 65.9184C81.4442 69.1122 83.8394 73.1835 84.9997 77.67C85.1874 78.3973 85.5166 79.0804 85.9683 79.6804C86.4201 80.2804 86.9856 80.7856 87.6326 81.167C88.2795 81.5485 88.9953 81.7988 89.739 81.9036C90.4827 82.0084 91.2398 81.9658 91.967 81.778C92.6942 81.5903 93.3774 81.2611 93.9774 80.8094C94.5774 80.3576 95.0825 79.7921 95.464 79.1451C95.8455 78.4982 96.0957 77.7824 96.2006 77.0387C96.3054 76.295 96.2627 75.5379 96.075 74.8107C94.6375 69.2199 91.8845 64.0538 88.0455 59.7428C84.2065 55.4318 79.3926 52.1009 74.0052 50.0276C68.6178 47.9544 62.8128 47.1989 57.0742 47.8242C51.3356 48.4494 45.8295 50.4373 41.015 53.6221C36.2004 56.8069 32.2169 61.0963 29.3963 66.1329C26.5758 71.1695 24.9999 76.8073 24.8001 82.5764C24.6004 88.3455 25.7824 94.0788 28.2479 99.2985C30.7133 104.518 34.3906 109.073 38.9733 112.583C27.6951 116.794 17.87 124.167 10.675 133.819C10.2244 134.419 9.89655 135.103 9.71017 135.831C9.52379 136.558 9.48252 137.315 9.58873 138.059C9.69493 138.802 9.94653 139.517 10.3292 140.164C10.7118 140.81 11.218 141.374 11.8188 141.825C12.4195 142.275 13.1032 142.603 13.8307 142.79C14.5582 142.976 15.3153 143.017 16.0588 142.911C16.8022 142.805 17.5175 142.553 18.1637 142.171C18.8099 141.788 19.3744 141.282 19.825 140.681C24.5974 134.266 30.8095 129.061 37.9611 125.485C45.1128 121.909 53.0042 120.062 61 120.094C62.5167 120.094 63.9713 119.491 65.0438 118.419C66.1162 117.346 66.7188 115.892 66.7188 114.375Z" fill="#E3E5EA"/>
</svg>
