<svg width="244" height="244" viewBox="0 0 244 244" fill="none" xmlns="http://www.w3.org/2000/svg">
<path d="M205.875 70.5313H124.373L97.7811 43.9391C96.5438 42.6975 95.0731 41.713 93.4536 41.0423C91.8342 40.3716 90.098 40.028 88.3452 40.0313H38.125C34.586 40.0313 31.192 41.4371 28.6895 43.9396C26.1871 46.442 24.7813 49.836 24.7812 53.375V191.216C24.7838 194.597 26.1282 197.84 28.5193 200.231C30.9103 202.622 34.1526 203.966 37.5341 203.969H206.723C210.037 203.966 213.213 202.649 215.556 200.306C217.899 197.963 219.216 194.787 219.219 191.473V83.875C219.219 80.336 217.813 76.942 215.31 74.4396C212.808 71.9371 209.414 70.5313 205.875 70.5313ZM38.125 51.4688H88.3452C88.8499 51.4709 89.3332 51.6731 89.6891 52.0311L108.189 70.5313H36.2188V53.375C36.2188 52.8695 36.4196 52.3846 36.7771 52.0271C37.1346 51.6696 37.6194 51.4688 38.125 51.4688ZM207.781 191.473C207.781 191.754 207.67 192.023 207.471 192.221C207.273 192.42 207.004 192.531 206.723 192.531H37.5341C37.1868 192.526 36.8551 192.386 36.6094 192.141C36.3638 191.895 36.2237 191.563 36.2188 191.216V81.9688H205.875C206.381 81.9688 206.865 82.1696 207.223 82.5271C207.58 82.8846 207.781 83.3695 207.781 83.875V191.473ZM150.594 137.25C150.594 138.767 149.991 140.221 148.919 141.294C147.846 142.366 146.392 142.969 144.875 142.969H127.719V160.125C127.719 161.642 127.116 163.096 126.044 164.169C124.971 165.241 123.517 165.844 122 165.844C120.483 165.844 119.029 165.241 117.956 164.169C116.884 163.096 116.281 161.642 116.281 160.125V142.969H99.125C97.6083 142.969 96.1537 142.366 95.0812 141.294C94.0088 140.221 93.4062 138.767 93.4062 137.25C93.4062 135.733 94.0088 134.279 95.0812 133.206C96.1537 132.134 97.6083 131.531 99.125 131.531H116.281V114.375C116.281 112.858 116.884 111.404 117.956 110.331C119.029 109.259 120.483 108.656 122 108.656C123.517 108.656 124.971 109.259 126.044 110.331C127.116 111.404 127.719 112.858 127.719 114.375V131.531H144.875C146.392 131.531 147.846 132.134 148.919 133.206C149.991 134.279 150.594 135.733 150.594 137.25Z" fill="#E3E5EA"/>
</svg>
