<svg width="180" height="180" viewBox="0 0 180 180" fill="none" xmlns="http://www.w3.org/2000/svg">
<path opacity="0.2" d="M78.75 118.125C78.75 122.575 77.4304 126.925 74.9581 130.625C72.4857 134.325 68.9717 137.209 64.8604 138.912C60.7491 140.615 56.2251 141.061 51.8605 140.193C47.4959 139.325 43.4868 137.182 40.3401 134.035C37.1934 130.888 35.0505 126.879 34.1823 122.515C33.3142 118.15 33.7597 113.626 35.4627 109.515C37.1657 105.403 40.0496 101.889 43.7497 99.4169C47.4498 96.9446 51.7999 95.625 56.25 95.625C62.2174 95.625 67.9403 97.9955 72.1599 102.215C76.3795 106.435 78.75 112.158 78.75 118.125ZM56.25 22.5C51.7999 22.5 47.4498 23.8196 43.7497 26.2919C40.0496 28.7643 37.1657 32.2783 35.4627 36.3896C33.7597 40.501 33.3142 45.025 34.1823 49.3895C35.0505 53.7541 37.1934 57.7632 40.3401 60.9099C43.4868 64.0566 47.4959 66.1995 51.8605 67.0677C56.2251 67.9358 60.7491 67.4903 64.8604 65.7873C68.9717 64.0843 72.4857 61.2004 74.9581 57.5003C77.4304 53.8002 78.75 49.4501 78.75 45C78.75 39.0326 76.3795 33.3097 72.1599 29.0901C67.9403 24.8705 62.2174 22.5 56.25 22.5ZM123.75 95.625C119.3 95.625 114.95 96.9446 111.25 99.4169C107.55 101.889 104.666 105.403 102.963 109.515C101.26 113.626 100.814 118.15 101.682 122.515C102.551 126.879 104.693 130.888 107.84 134.035C110.987 137.182 114.996 139.325 119.36 140.193C123.725 141.061 128.249 140.615 132.36 138.912C136.472 137.209 139.986 134.325 142.458 130.625C144.93 126.925 146.25 122.575 146.25 118.125C146.25 112.158 143.879 106.435 139.66 102.215C135.44 97.9955 129.717 95.625 123.75 95.625ZM123.75 67.5C128.2 67.5 132.55 66.1804 136.25 63.7081C139.95 61.2357 142.834 57.7217 144.537 53.6104C146.24 49.4991 146.686 44.9751 145.818 40.6105C144.95 36.2459 142.807 32.2368 139.66 29.0901C136.513 25.9434 132.504 23.8005 128.14 22.9323C123.775 22.0642 119.251 22.5097 115.14 24.2127C111.028 25.9157 107.514 28.7996 105.042 32.4997C102.57 36.1998 101.25 40.5499 101.25 45C101.25 50.9674 103.621 56.6903 107.84 60.9099C112.06 65.1295 117.783 67.5 123.75 67.5Z" fill="#D2D8E7"/>
<path d="M19.125 88.8749C19.7159 89.3182 20.3884 89.6406 21.104 89.824C21.8196 90.0073 22.5642 90.0479 23.2955 89.9434C24.0268 89.8389 24.7303 89.5915 25.3659 89.2151C26.0015 88.8388 26.5568 88.3409 27 87.7499C30.4057 83.209 34.8219 79.5234 39.8988 76.9849C44.9757 74.4465 50.5739 73.1249 56.25 73.1249C61.9261 73.1249 67.5243 74.4465 72.6012 76.9849C77.6781 79.5234 82.0943 83.209 85.5 87.7499C86.3962 88.9423 87.7292 89.7299 89.206 89.9396C90.6828 90.1493 92.1824 89.7638 93.375 88.8679C93.8002 88.5517 94.1768 88.1751 94.493 87.7499C97.8987 83.209 102.315 79.5234 107.392 76.9849C112.469 74.4465 118.067 73.1249 123.743 73.1249C129.419 73.1249 135.017 74.4465 140.094 76.9849C145.171 79.5234 149.587 83.209 152.993 87.7499C153.889 88.9434 155.222 89.7321 156.7 89.9424C158.177 90.1527 159.678 89.7675 160.871 88.8714C162.065 87.9754 162.854 86.6419 163.064 85.1644C163.274 83.6869 162.889 82.1864 161.993 80.9929C157.014 74.3179 150.374 69.0625 142.734 65.7492C146.923 61.9251 149.857 56.9242 151.153 51.4026C152.448 45.881 152.044 40.0968 149.993 34.809C147.942 29.5212 144.341 24.977 139.661 21.7727C134.982 18.5684 129.443 16.8538 123.771 16.8538C118.1 16.8538 112.561 18.5684 107.881 21.7727C103.201 24.977 99.5999 29.5212 97.5491 34.809C95.4984 40.0968 95.0941 45.881 96.3895 51.4026C97.6849 56.9242 100.619 61.9251 104.808 65.7492C99.2914 68.1345 94.2801 71.5493 90.0422 75.8109C85.8043 71.5493 80.793 68.1345 75.2766 65.7492C79.465 61.9251 82.3995 56.9242 83.6948 51.4026C84.9902 45.881 84.586 40.0968 82.5353 34.809C80.4845 29.5212 76.883 24.977 72.2034 21.7727C67.5238 18.5684 61.9848 16.8538 56.3133 16.8538C50.6418 16.8538 45.1028 18.5684 40.4232 21.7727C35.7436 24.977 32.1421 29.5212 30.0913 34.809C28.0405 40.0968 27.6363 45.881 28.9317 51.4026C30.2271 56.9242 33.1616 61.9251 37.35 65.7492C29.6765 69.0517 23.0041 74.3105 18 80.9999C17.5568 81.5909 17.2343 82.2633 17.051 82.9789C16.8677 83.6945 16.8271 84.4392 16.9315 85.1704C17.036 85.9017 17.2835 86.6052 17.6598 87.2408C18.0362 87.8765 18.5341 88.4317 19.125 88.8749ZM123.75 28.1249C127.088 28.1249 130.35 29.1146 133.125 30.9689C135.9 32.8231 138.063 35.4587 139.34 38.5422C140.618 41.6257 140.952 45.0187 140.301 48.2921C139.65 51.5655 138.042 54.5724 135.682 56.9324C133.322 59.2924 130.316 60.8996 127.042 61.5507C123.769 62.2018 120.376 61.8676 117.292 60.5904C114.209 59.3132 111.573 57.1503 109.719 54.3752C107.865 51.6001 106.875 48.3375 106.875 44.9999C106.875 40.5244 108.653 36.2322 111.818 33.0675C114.982 29.9028 119.274 28.1249 123.75 28.1249ZM56.25 28.1249C59.5876 28.1249 62.8502 29.1146 65.6252 30.9689C68.4003 32.8231 70.5632 35.4587 71.8405 38.5422C73.1177 41.6257 73.4519 45.0187 72.8008 48.2921C72.1496 51.5655 70.5424 54.5724 68.1824 56.9324C65.8224 59.2924 62.8156 60.8996 59.5421 61.5507C56.2687 62.2018 52.8757 61.8676 49.7922 60.5904C46.7087 59.3132 44.0732 57.1503 42.219 54.3752C40.3647 51.6001 39.375 48.3375 39.375 44.9999C39.375 40.5244 41.1529 36.2322 44.3176 33.0675C47.4822 29.9028 51.7745 28.1249 56.25 28.1249ZM142.734 138.874C146.923 135.05 149.857 130.049 151.153 124.528C152.448 119.006 152.044 113.222 149.993 107.934C147.942 102.646 144.341 98.102 139.661 94.8977C134.982 91.6934 129.443 89.9788 123.771 89.9788C118.1 89.9788 112.561 91.6934 107.881 94.8977C103.201 98.102 99.5999 102.646 97.5491 107.934C95.4984 113.222 95.0941 119.006 96.3895 124.528C97.6849 130.049 100.619 135.05 104.808 138.874C99.2914 141.259 94.2801 144.674 90.0422 148.936C85.8043 144.674 80.793 141.259 75.2766 138.874C79.465 135.05 82.3995 130.049 83.6948 124.528C84.9902 119.006 84.586 113.222 82.5353 107.934C80.4845 102.646 76.883 98.102 72.2034 94.8977C67.5238 91.6934 61.9848 89.9788 56.3133 89.9788C50.6418 89.9788 45.1028 91.6934 40.4232 94.8977C35.7436 98.102 32.1421 102.646 30.0913 107.934C28.0405 113.222 27.6363 119.006 28.9317 124.528C30.2271 130.049 33.1616 135.05 37.35 138.874C29.6765 142.177 23.0041 147.435 18 154.125C17.5568 154.716 17.2343 155.388 17.051 156.104C16.8677 156.819 16.8271 157.564 16.9315 158.295C17.036 159.027 17.2835 159.73 17.6598 160.366C18.0362 161.001 18.5341 161.557 19.125 162C19.7159 162.443 20.3884 162.766 21.104 162.949C21.8196 163.132 22.5642 163.173 23.2955 163.068C24.0268 162.964 24.7303 162.716 25.3659 162.34C26.0015 161.964 26.5568 161.466 27 160.875C30.4057 156.334 34.8219 152.648 39.8988 150.11C44.9757 147.571 50.5739 146.25 56.25 146.25C61.9261 146.25 67.5243 147.571 72.6012 150.11C77.6781 152.648 82.0943 156.334 85.5 160.875C86.3962 162.067 87.7292 162.855 89.206 163.065C90.6828 163.274 92.1824 162.889 93.375 161.993C93.8002 161.677 94.1768 161.3 94.493 160.875C97.8987 156.334 102.315 152.648 107.392 150.11C112.469 147.571 118.067 146.25 123.743 146.25C129.419 146.25 135.017 147.571 140.094 150.11C145.171 152.648 149.587 156.334 152.993 160.875C153.889 162.068 155.222 162.857 156.7 163.067C158.177 163.278 159.678 162.892 160.871 161.996C162.065 161.1 162.854 159.767 163.064 158.289C163.274 156.812 162.889 155.311 161.993 154.118C157.014 147.443 150.374 142.187 142.734 138.874ZM56.25 101.25C59.5876 101.25 62.8502 102.24 65.6252 104.094C68.4003 105.948 70.5632 108.584 71.8405 111.667C73.1177 114.751 73.4519 118.144 72.8008 121.417C72.1496 124.691 70.5424 127.697 68.1824 130.057C65.8224 132.417 62.8156 134.025 59.5421 134.676C56.2687 135.327 52.8757 134.993 49.7922 133.715C46.7087 132.438 44.0732 130.275 42.219 127.5C40.3647 124.725 39.375 121.462 39.375 118.125C39.375 113.649 41.1529 109.357 44.3176 106.193C47.4822 103.028 51.7745 101.25 56.25 101.25ZM123.75 101.25C127.088 101.25 130.35 102.24 133.125 104.094C135.9 105.948 138.063 108.584 139.34 111.667C140.618 114.751 140.952 118.144 140.301 121.417C139.65 124.691 138.042 127.697 135.682 130.057C133.322 132.417 130.316 134.025 127.042 134.676C123.769 135.327 120.376 134.993 117.292 133.715C114.209 132.438 111.573 130.275 109.719 127.5C107.865 124.725 106.875 121.462 106.875 118.125C106.875 113.649 108.653 109.357 111.818 106.193C114.982 103.028 119.274 101.25 123.75 101.25Z" fill="#D2D8E7"/>
</svg>
