<svg width="180" height="180" viewBox="0 0 180 180" fill="none" xmlns="http://www.w3.org/2000/svg">
<path opacity="0.2" d="M157.5 90C157.51 99.4663 155.524 108.828 151.671 117.475C147.819 126.122 142.186 133.859 135.141 140.182C130.905 131.851 124.446 124.854 116.478 119.968C108.511 115.083 99.3463 112.498 90 112.5C95.5626 112.5 101 110.85 105.625 107.76C110.251 104.67 113.855 100.277 115.984 95.1379C118.113 89.9988 118.67 84.3438 117.585 78.888C116.499 73.4323 113.821 68.4209 109.887 64.4876C105.954 60.5542 100.943 57.8756 95.4869 56.7904C90.0312 55.7052 84.3762 56.2621 79.237 58.3908C74.0979 60.5196 69.7054 64.1244 66.6149 68.7495C63.5245 73.3747 61.875 78.8124 61.875 84.375C61.875 91.8342 64.8382 98.9879 70.1126 104.262C75.3871 109.537 82.5408 112.5 90 112.5C80.6538 112.498 71.4893 115.083 63.5218 119.968C55.5544 124.854 49.0951 131.851 44.8594 140.182C36.494 132.657 30.1422 123.161 26.3817 112.557C22.6211 101.952 21.5711 90.5757 23.3271 79.462C25.0831 68.3483 29.5894 57.8499 36.4363 48.9213C43.2831 39.9928 52.2533 32.9174 62.531 28.3386C72.8088 23.7598 84.0681 21.8228 95.2852 22.7038C106.502 23.5848 117.321 27.2558 126.758 33.383C136.195 39.5102 143.951 47.8992 149.32 57.7872C154.689 67.6751 157.501 78.7484 157.5 90Z" fill="#D2D8E7"/>
<path d="M118.125 39.3751C118.125 37.8832 118.718 36.4525 119.773 35.3976C120.828 34.3427 122.258 33.7501 123.75 33.7501H157.5C158.992 33.7501 160.423 34.3427 161.478 35.3976C162.533 36.4525 163.125 37.8832 163.125 39.3751C163.125 40.8669 162.533 42.2976 161.478 43.3525C160.423 44.4074 158.992 45.0001 157.5 45.0001H123.75C122.258 45.0001 120.828 44.4074 119.773 43.3525C118.718 42.2976 118.125 40.8669 118.125 39.3751ZM158.963 65.6227C164.3 80.7398 164.518 97.1926 159.583 112.446C154.648 127.699 144.834 140.906 131.653 150.032C118.472 159.158 102.656 163.696 86.6419 162.947C70.6277 162.198 55.3042 156.204 43.0326 145.888C30.761 135.572 22.2223 121.506 18.7322 105.859C15.2421 90.2121 16.9944 73.8515 23.719 59.2984C30.4437 44.7453 41.7674 32.8074 55.9454 25.3243C70.1234 17.8411 86.3688 15.228 102.178 17.8876C103.638 18.1458 104.938 18.9701 105.793 20.1812C106.649 21.3923 106.991 22.8923 106.747 24.3548C106.502 25.8173 105.69 27.124 104.487 27.9907C103.283 28.8574 101.787 29.214 100.322 28.9829C91.4495 27.4903 82.3583 27.9491 73.6811 30.3273C65.004 32.7055 56.9493 36.9459 50.0775 42.7536C43.2058 48.5612 37.6822 55.7965 33.891 63.9559C30.0999 72.1153 28.1323 81.0029 28.1251 90.0001C28.1118 105.147 33.6788 119.768 43.7626 131.07C50.0361 121.979 58.8574 114.946 69.1173 110.855C63.6061 106.514 59.5846 100.564 57.6119 93.8314C55.6392 87.099 55.8135 79.9193 58.1105 73.2906C60.4075 66.6619 64.713 60.9138 70.4284 56.8455C76.1437 52.7773 82.9847 50.5912 90.0001 50.5912C97.0155 50.5912 103.857 52.7773 109.572 56.8455C115.287 60.9138 119.593 66.6619 121.89 73.2906C124.187 79.9193 124.361 87.099 122.388 93.8314C120.416 100.564 116.394 106.514 110.883 110.855C121.143 114.946 129.964 121.979 136.238 131.07C143.586 122.808 148.586 112.727 150.718 101.878C152.85 91.0282 152.036 79.8055 148.36 69.3774C148.113 68.6807 148.006 67.9423 148.045 67.2043C148.084 66.4663 148.268 65.7432 148.586 65.0763C148.904 64.4093 149.351 63.8116 149.9 63.3172C150.449 62.8229 151.091 62.4415 151.787 62.195C152.484 61.9484 153.222 61.8415 153.96 61.8804C154.698 61.9192 155.421 62.103 156.088 62.4213C156.755 62.7396 157.353 63.1862 157.847 63.7355C158.342 64.2848 158.723 64.926 158.97 65.6227H158.963ZM90.0001 106.875C94.4502 106.875 98.8004 105.555 102.5 103.083C106.201 100.611 109.084 97.0968 110.787 92.9854C112.49 88.8741 112.936 84.3501 112.068 79.9855C111.2 75.621 109.057 71.6118 105.91 68.4652C102.763 65.3185 98.7542 63.1756 94.3897 62.3074C90.0251 61.4392 85.5011 61.8848 81.3898 63.5878C77.2784 65.2907 73.7644 68.1746 71.2921 71.8747C68.8197 75.5748 67.5001 79.925 67.5001 84.3751C67.5001 90.3424 69.8707 96.0654 74.0902 100.285C78.3098 104.505 84.0328 106.875 90.0001 106.875ZM90.0001 151.875C103.735 151.889 117.08 147.31 127.913 138.867C123.843 132.503 118.238 127.266 111.612 123.638C104.986 120.01 97.554 118.109 90.0001 118.109C82.4463 118.109 75.014 120.01 68.3883 123.638C61.7627 127.266 56.1569 132.503 52.0876 138.867C62.9206 147.31 76.2656 151.889 90.0001 151.875Z" fill="#D2D8E7"/>
</svg>
