<svg width="180" height="180" viewBox="0 0 180 180" fill="none" xmlns="http://www.w3.org/2000/svg">
<path opacity="0.2" d="M151.875 33.75V61.875H28.125V33.75C28.125 32.2582 28.7176 30.8274 29.7725 29.7725C30.8274 28.7176 32.2582 28.125 33.75 28.125H146.25C147.742 28.125 149.173 28.7176 150.227 29.7725C151.282 30.8274 151.875 32.2582 151.875 33.75Z" fill="#D2D8E7"/>
<path d="M146.25 22.5H129.375V16.875C129.375 15.3832 128.782 13.9524 127.727 12.8975C126.673 11.8426 125.242 11.25 123.75 11.25C122.258 11.25 120.827 11.8426 119.773 12.8975C118.718 13.9524 118.125 15.3832 118.125 16.875V22.5H61.875V16.875C61.875 15.3832 61.2824 13.9524 60.2275 12.8975C59.1726 11.8426 57.7418 11.25 56.25 11.25C54.7582 11.25 53.3274 11.8426 52.2725 12.8975C51.2176 13.9524 50.625 15.3832 50.625 16.875V22.5H33.75C30.7663 22.5 27.9048 23.6853 25.795 25.795C23.6853 27.9048 22.5 30.7663 22.5 33.75V146.25C22.5 149.234 23.6853 152.095 25.795 154.205C27.9048 156.315 30.7663 157.5 33.75 157.5H146.25C149.234 157.5 152.095 156.315 154.205 154.205C156.315 152.095 157.5 149.234 157.5 146.25V33.75C157.5 30.7663 156.315 27.9048 154.205 25.795C152.095 23.6853 149.234 22.5 146.25 22.5ZM50.625 33.75V39.375C50.625 40.8668 51.2176 42.2976 52.2725 43.3525C53.3274 44.4074 54.7582 45 56.25 45C57.7418 45 59.1726 44.4074 60.2275 43.3525C61.2824 42.2976 61.875 40.8668 61.875 39.375V33.75H118.125V39.375C118.125 40.8668 118.718 42.2976 119.773 43.3525C120.827 44.4074 122.258 45 123.75 45C125.242 45 126.673 44.4074 127.727 43.3525C128.782 42.2976 129.375 40.8668 129.375 39.375V33.75H146.25V56.25H33.75V33.75H50.625ZM146.25 146.25H33.75V67.5H146.25V146.25ZM110.855 93.9797L97.9523 106.875L110.855 119.77C111.377 120.293 111.792 120.913 112.075 121.596C112.358 122.279 112.503 123.011 112.503 123.75C112.503 124.489 112.358 125.221 112.075 125.904C111.792 126.587 111.377 127.207 110.855 127.73C110.332 128.252 109.712 128.667 109.029 128.95C108.346 129.233 107.614 129.378 106.875 129.378C106.136 129.378 105.404 129.233 104.721 128.95C104.038 128.667 103.418 128.252 102.895 127.73L90 114.827L77.1047 127.73C76.5821 128.252 75.9616 128.667 75.2788 128.95C74.596 129.233 73.8641 129.378 73.125 129.378C72.3859 129.378 71.654 129.233 70.9712 128.95C70.2884 128.667 69.6679 128.252 69.1453 127.73C68.6227 127.207 68.2081 126.587 67.9253 125.904C67.6424 125.221 67.4969 124.489 67.4969 123.75C67.4969 123.011 67.6424 122.279 67.9253 121.596C68.2081 120.913 68.6227 120.293 69.1453 119.77L82.0477 106.875L69.1453 93.9797C68.0898 92.9242 67.4969 91.4927 67.4969 90C67.4969 88.5073 68.0898 87.0758 69.1453 86.0203C70.2008 84.9648 71.6323 84.3719 73.125 84.3719C74.6177 84.3719 76.0492 84.9648 77.1047 86.0203L90 98.9227L102.895 86.0203C103.418 85.4977 104.038 85.0831 104.721 84.8003C105.404 84.5174 106.136 84.3719 106.875 84.3719C107.614 84.3719 108.346 84.5174 109.029 84.8003C109.712 85.0831 110.332 85.4977 110.855 86.0203C111.377 86.5429 111.792 87.1634 112.075 87.8462C112.358 88.529 112.503 89.2609 112.503 90C112.503 90.7391 112.358 91.471 112.075 92.1538C111.792 92.8366 111.377 93.4571 110.855 93.9797Z" fill="#D2D8E7"/>
</svg>
