<svg width="180" height="180" viewBox="0 0 180 180" fill="none" xmlns="http://www.w3.org/2000/svg">
<path opacity="0.2" d="M161.058 76.4929L126.816 106.024L137.279 150.173C137.555 151.308 137.489 152.499 137.089 153.596C136.689 154.693 135.972 155.647 135.03 156.337C134.088 157.027 132.963 157.422 131.796 157.473C130.629 157.523 129.474 157.227 128.475 156.621L90.0004 132.954L51.5254 156.614C50.5271 157.22 49.3716 157.516 48.2049 157.466C47.0382 157.415 45.9126 157.02 44.9705 156.33C44.0284 155.64 43.312 154.686 42.9118 153.589C42.5116 152.492 42.4457 151.301 42.7223 150.166L53.1848 106.017L18.9426 76.4858C18.0695 75.7193 17.4401 74.7138 17.1319 73.5935C16.8238 72.4733 16.8505 71.2873 17.2087 70.1821C17.5669 69.0768 18.2409 68.1007 19.1476 67.3741C20.0542 66.6476 21.1538 66.2024 22.3105 66.0937L67.2473 62.4374L84.5582 20.5312C84.9995 19.45 85.7528 18.5248 86.7221 17.8736C87.6914 17.2223 88.8326 16.8745 90.0004 16.8745C91.1681 16.8745 92.3094 17.2223 93.2787 17.8736C94.2479 18.5248 95.0013 19.45 95.4426 20.5312L112.754 62.4374L157.69 66.0937C158.849 66.2011 159.95 66.6459 160.858 67.3729C161.766 68.0999 162.441 69.0772 162.8 70.1839C163.158 71.2906 163.184 72.4781 162.875 73.5994C162.565 74.7208 161.934 75.7268 161.058 76.4929Z" fill="#D2D8E7"/>
<path d="M168.173 68.3859C167.47 66.224 166.143 64.3186 164.358 62.9097C162.574 61.5008 160.413 60.6515 158.147 60.4688L116.662 57.1219L100.645 18.3867C99.779 16.2761 98.3047 14.4707 96.4098 13.2C94.5148 11.9294 92.2849 11.251 90.0034 11.251C87.7219 11.251 85.4919 11.9294 83.597 13.2C81.7021 14.4707 80.2278 16.2761 79.3616 18.3867L63.3585 57.1149L21.853 60.4688C19.5831 60.6607 17.4204 61.5183 15.6358 62.934C13.8511 64.3496 12.524 66.2605 11.8205 68.4271C11.1171 70.5937 11.0687 72.9198 11.6813 75.1138C12.294 77.3078 13.5405 79.2722 15.2647 80.7609L46.9053 108.063L37.2655 148.887C36.7264 151.105 36.8584 153.433 37.6447 155.575C38.4311 157.718 39.8364 159.579 41.6822 160.921C43.528 162.264 45.7312 163.028 48.0119 163.116C50.2926 163.204 52.5481 162.612 54.4921 161.416L89.9999 139.563L125.529 161.416C127.473 162.598 129.724 163.178 131.998 163.084C134.272 162.989 136.466 162.223 138.306 160.884C140.145 159.544 141.548 157.69 142.336 155.555C143.124 153.421 143.262 151.1 142.734 148.887L133.059 108.056L164.7 80.7539C166.438 79.2677 167.696 77.299 168.314 75.0973C168.933 72.8955 168.884 70.5598 168.173 68.3859ZM157.387 72.232L123.145 101.763C122.364 102.436 121.783 103.311 121.466 104.292C121.149 105.273 121.107 106.322 121.345 107.325L131.808 151.481C131.835 151.542 131.837 151.611 131.815 151.674C131.793 151.737 131.747 151.789 131.688 151.819C131.562 151.917 131.526 151.896 131.421 151.819L92.946 128.159C92.0599 127.614 91.04 127.325 89.9999 127.325C88.9597 127.325 87.9399 127.614 87.0538 128.159L48.5788 151.833C48.4733 151.896 48.4452 151.917 48.3116 151.833C48.2522 151.803 48.2068 151.751 48.1845 151.688C48.1623 151.625 48.165 151.556 48.1921 151.495L58.6545 107.339C58.893 106.336 58.8512 105.287 58.5338 104.306C58.2163 103.325 57.6354 102.45 56.8545 101.777L22.6124 72.2461C22.528 72.1758 22.4506 72.1125 22.521 71.8945C22.5913 71.6766 22.6475 71.7047 22.753 71.6906L67.6967 68.0625C68.7276 67.9741 69.7141 67.6031 70.5477 66.9903C71.3813 66.3774 72.0298 65.5466 72.4217 64.5891L89.7327 22.6758C89.7889 22.5562 89.81 22.5 89.9788 22.5C90.1475 22.5 90.1686 22.5562 90.2249 22.6758L107.578 64.5891C107.974 65.5469 108.626 66.3769 109.464 66.9873C110.301 67.5978 111.291 67.965 112.324 68.0484L157.268 71.6766C157.373 71.6766 157.437 71.6766 157.5 71.8805C157.563 72.0844 157.5 72.1617 157.387 72.232Z" fill="#D2D8E7"/>
</svg>
