<svg width="180" height="180" viewBox="0 0 180 180" fill="none" xmlns="http://www.w3.org/2000/svg">
<path opacity="0.2" d="M129.375 28.125V73.125L90 112.5L50.625 73.125V28.125H129.375Z" fill="#D2D8E7"/>
<path d="M135 28.125V73.125C135.001 73.8639 134.856 74.5957 134.573 75.2785C134.291 75.9614 133.877 76.5819 133.355 77.1047L95.625 114.827V149.548L108.52 136.645C109.576 135.59 111.007 134.997 112.5 134.997C113.993 134.997 115.424 135.59 116.48 136.645C117.535 137.701 118.128 139.132 118.128 140.625C118.128 142.118 117.535 143.549 116.48 144.605L93.9797 167.105C93.4573 167.628 92.8369 168.043 92.154 168.326C91.4712 168.609 90.7392 168.754 90 168.754C89.2608 168.754 88.5288 168.609 87.846 168.326C87.1631 168.043 86.5427 167.628 86.0203 167.105L63.5203 144.605C62.4648 143.549 61.8719 142.118 61.8719 140.625C61.8719 139.132 62.4648 137.701 63.5203 136.645C64.5758 135.59 66.0073 134.997 67.5 134.997C68.9927 134.997 70.4242 135.59 71.4797 136.645L84.375 149.548V114.827L46.6453 77.1047C46.1231 76.5819 45.709 75.9614 45.4267 75.2785C45.1444 74.5957 44.9994 73.8639 45 73.125V28.125C45 26.6332 45.5926 25.2024 46.6475 24.1475C47.7024 23.0926 49.1332 22.5 50.625 22.5C52.1168 22.5 53.5476 23.0926 54.6025 24.1475C55.6574 25.2024 56.25 26.6332 56.25 28.125V70.7977L90 104.548L123.75 70.7977V28.125C123.75 26.6332 124.343 25.2024 125.398 24.1475C126.452 23.0926 127.883 22.5 129.375 22.5C130.867 22.5 132.298 23.0926 133.352 24.1475C134.407 25.2024 135 26.6332 135 28.125Z" fill="#D2D8E7"/>
</svg>
