<svg width="244" height="244" viewBox="0 0 244 244" fill="none" xmlns="http://www.w3.org/2000/svg">
<path d="M205.875 40.0312H127.719V22.875C127.719 21.3583 127.116 19.9037 126.044 18.8312C124.971 17.7588 123.517 17.1562 122 17.1562C120.483 17.1562 119.029 17.7588 117.956 18.8312C116.884 19.9037 116.281 21.3583 116.281 22.875V40.0312H38.125C34.586 40.0312 31.192 41.4371 28.6895 43.9395C26.1871 46.442 24.7813 49.836 24.7812 53.375V167.75C24.7812 171.289 26.1871 174.683 28.6895 177.185C31.192 179.688 34.586 181.094 38.125 181.094H79.605L56.5298 209.926C56.0605 210.513 55.7113 211.187 55.5023 211.909C55.2933 212.63 55.2286 213.387 55.3118 214.134C55.4798 215.642 56.2402 217.022 57.4258 217.97C58.6113 218.918 60.1249 219.356 61.6335 219.188C63.1421 219.02 64.5222 218.26 65.4702 217.074L94.245 181.094H149.755L178.53 217.074C178.999 217.661 179.58 218.15 180.238 218.513C180.896 218.876 181.619 219.105 182.366 219.188C183.113 219.271 183.87 219.207 184.591 218.998C185.313 218.789 185.987 218.44 186.574 217.97C187.161 217.501 187.65 216.92 188.013 216.262C188.376 215.604 188.605 214.881 188.688 214.134C188.771 213.387 188.707 212.63 188.498 211.909C188.289 211.187 187.94 210.513 187.47 209.926L164.395 181.094H205.875C209.414 181.094 212.808 179.688 215.31 177.185C217.813 174.683 219.219 171.289 219.219 167.75V53.375C219.219 49.836 217.813 46.442 215.31 43.9395C212.808 41.4371 209.414 40.0312 205.875 40.0312ZM207.781 167.75C207.781 168.256 207.58 168.74 207.223 169.098C206.865 169.455 206.381 169.656 205.875 169.656H38.125C37.6194 169.656 37.1346 169.455 36.7771 169.098C36.4196 168.74 36.2188 168.256 36.2188 167.75V53.375C36.2188 52.8694 36.4196 52.3846 36.7771 52.0271C37.1346 51.6696 37.6194 51.4688 38.125 51.4688H205.875C206.381 51.4688 206.865 51.6696 207.223 52.0271C207.58 52.3846 207.781 52.8694 207.781 53.375V167.75ZM97.2188 114.375V137.25C97.2188 138.767 96.6162 140.221 95.5438 141.294C94.4713 142.366 93.0167 142.969 91.5 142.969C89.9833 142.969 88.5287 142.366 87.4562 141.294C86.3838 140.221 85.7812 138.767 85.7812 137.25V114.375C85.7812 112.858 86.3838 111.404 87.4562 110.331C88.5287 109.259 89.9833 108.656 91.5 108.656C93.0167 108.656 94.4713 109.259 95.5438 110.331C96.6162 111.404 97.2188 112.858 97.2188 114.375ZM127.719 99.125V137.25C127.719 138.767 127.116 140.221 126.044 141.294C124.971 142.366 123.517 142.969 122 142.969C120.483 142.969 119.029 142.366 117.956 141.294C116.884 140.221 116.281 138.767 116.281 137.25V99.125C116.281 97.6083 116.884 96.1537 117.956 95.0812C119.029 94.0088 120.483 93.4062 122 93.4062C123.517 93.4062 124.971 94.0088 126.044 95.0812C127.116 96.1537 127.719 97.6083 127.719 99.125ZM158.219 83.875V137.25C158.219 138.767 157.616 140.221 156.544 141.294C155.471 142.366 154.017 142.969 152.5 142.969C150.983 142.969 149.529 142.366 148.456 141.294C147.384 140.221 146.781 138.767 146.781 137.25V83.875C146.781 82.3583 147.384 80.9037 148.456 79.8312C149.529 78.7588 150.983 78.1562 152.5 78.1562C154.017 78.1562 155.471 78.7588 156.544 79.8312C157.616 80.9037 158.219 82.3583 158.219 83.875Z" fill="#E3E5EA"/>
</svg>
