<svg width="244" height="244" viewBox="0 0 244 244" fill="none" xmlns="http://www.w3.org/2000/svg">
<g clip-path="url(#clip0_454_5193)">
<path d="M99.125 135.21V73.5717L141.539 49.0859C150.141 44.1174 160.126 42.0835 169.986 43.2915C179.845 44.4995 189.044 48.8838 196.192 55.7818C203.34 62.6799 208.048 71.717 209.606 81.5276C211.164 91.3382 209.486 101.389 204.827 110.162" stroke="#E3E5EA" stroke-width="12" stroke-linecap="round" stroke-linejoin="round"/>
<path d="M122 148.411L68.625 117.597V68.6251C68.6234 58.6925 71.8543 49.0292 77.8297 41.0949C83.805 33.1607 92.2002 27.3867 101.747 24.645C111.294 21.9034 121.473 22.3431 130.748 25.8978C140.023 29.4525 147.889 35.9291 153.158 44.349" stroke="#E3E5EA" stroke-width="12" stroke-linecap="round" stroke-linejoin="round"/>
<path d="M144.875 135.21L91.5 166.025L49.0859 141.539C40.502 136.566 33.7672 128.937 29.8967 119.803C26.0262 110.668 25.2296 100.523 27.6271 90.8968C30.0246 81.2703 35.4862 72.684 43.1887 66.4319C50.8912 60.1798 60.4173 56.6008 70.3311 56.2344" stroke="#E3E5EA" stroke-width="12" stroke-linecap="round" stroke-linejoin="round"/>
<path d="M144.875 108.79V170.428L102.461 194.914C93.8592 199.883 83.8741 201.917 74.0143 200.709C64.1546 199.501 54.9558 195.116 47.808 188.218C40.6601 181.32 35.9516 172.283 34.3939 162.472C32.8362 152.662 34.5138 142.611 39.1734 133.838" stroke="#E3E5EA" stroke-width="12" stroke-linecap="round" stroke-linejoin="round"/>
<path d="M122 95.5889L175.375 126.403V175.375C175.377 185.308 172.146 194.971 166.17 202.905C160.195 210.839 151.8 216.613 142.253 219.355C132.706 222.097 122.527 221.657 113.252 218.102C103.977 214.548 96.1112 208.071 90.8423 199.651" stroke="#E3E5EA" stroke-width="12" stroke-linecap="round" stroke-linejoin="round"/>
<path d="M99.125 108.79L152.5 77.9751L194.914 102.461C203.52 107.425 210.277 115.055 214.162 124.198C218.048 133.342 218.852 143.501 216.452 153.142C214.052 162.783 208.58 171.38 200.861 177.635C193.143 183.891 183.598 187.463 173.669 187.813" stroke="#E3E5EA" stroke-width="12" stroke-linecap="round" stroke-linejoin="round"/>
</g>
<defs>
<clipPath id="clip0_454_5193">
<rect width="244" height="244" fill="white"/>
</clipPath>
</defs>
</svg>
