<svg width="18" height="18" viewBox="0 0 18 18" fill="none" xmlns="http://www.w3.org/2000/svg">
<g clip-path="url(#clip0_2095_5448)">
<path d="M16.2445 8.07557L13.0804 10.8058L14.0444 14.8888C14.0976 15.1105 14.0839 15.3429 14.005 15.5568C13.9262 15.7707 13.7857 15.9564 13.6014 16.0905C13.417 16.2245 13.1971 16.301 12.9693 16.3101C12.7416 16.3193 12.5162 16.2607 12.3217 16.1418L8.77095 13.9565L5.21806 16.1418C5.0236 16.26 4.79851 16.318 4.57114 16.3085C4.34378 16.2991 4.1243 16.2225 3.94034 16.0886C3.75639 15.9546 3.61619 15.7692 3.53739 15.5557C3.45858 15.3422 3.44471 15.1102 3.49751 14.8888L4.46501 10.8058L1.30095 8.07557C1.1289 7.92686 1.00446 7.73077 0.94319 7.51176C0.881918 7.29276 0.886524 7.06056 0.956432 6.84416C1.02634 6.62776 1.15845 6.43675 1.33627 6.29499C1.51409 6.15323 1.72973 6.06699 1.95626 6.04705L6.1047 5.71236L7.70501 1.83955C7.79163 1.62848 7.93906 1.44794 8.12856 1.32088C8.31805 1.19382 8.54104 1.12598 8.76919 1.12598C8.99734 1.12598 9.22034 1.19382 9.40983 1.32088C9.59932 1.44794 9.74675 1.62848 9.83337 1.83955L11.433 5.71236L15.5814 6.04705C15.8084 6.06625 16.0247 6.152 16.2031 6.29357C16.3816 6.43514 16.5143 6.62622 16.5847 6.84289C16.655 7.05955 16.6599 7.29215 16.5986 7.51155C16.5373 7.73096 16.4127 7.9274 16.2402 8.07627L16.2445 8.07557Z" fill="#7B6BF2"/>
</g>
<defs>
<clipPath id="clip0_2095_5448">
<rect width="18" height="18" fill="white"/>
</clipPath>
</defs>
</svg>
